<svg width="249" height="265" viewBox="0 0 249 265" fill="none" xmlns="http://www.w3.org/2000/svg">
<path d="M65.6 207.4C56.8 207.4 50.3333 205.067 46.2 200.4C42.2 195.733 40.2 189.533 40.2 181.8C40.2 179.933 40.2667 178.067 40.4 176.2C40.6667 174.2 41.0667 171.667 41.6 168.6L49 124.6H22.6L26.4 101.8H43C47.2667 101.8 50.4667 100.933 52.6 99.2C54.8667 97.4667 56.3333 94.3333 57 89.8L61 65.4H88.2L82.2 101.8H122.6L118.8 124.6H78.4L68.8 182.2L72.8 183.6L104 159L118.4 175.4L106.4 185.8C102.133 189.4 98.2667 192.6 94.8 195.4C91.3333 198.067 88 200.333 84.8 202.2C81.7333 203.933 78.6667 205.2 75.6 206C72.5333 206.933 69.2 207.4 65.6 207.4Z" fill="white"/>
<path d="M113.4 101.8H142.6L138.6 126.4H139.6C141.6 122.4 143.667 118.8 145.8 115.6C148.067 112.267 150.533 109.4 153.2 107C156 104.6 159.067 102.733 162.4 101.4C165.867 100.067 169.8 99.4 174.2 99.4C179.667 99.4 184.267 100.333 188 102.2C191.867 104.067 195 106.8 197.4 110.4C199.8 113.867 201.533 118.067 202.6 123C203.8 127.933 204.4 133.4 204.4 139.4C204.4 149.667 203.267 159 201 167.4C198.733 175.667 195.533 182.8 191.4 188.8C187.267 194.667 182.267 199.267 176.4 202.6C170.667 205.8 164.2 207.4 157 207.4C148.867 207.4 142.667 205.533 138.4 201.8C134.267 197.933 131.467 192.6 130 185.8H128.6L118.6 245H89.4L113.4 101.8ZM147.6 184.8C154.8 184.8 160.333 182.733 164.2 178.6C168.067 174.333 170.667 168.267 172 160.4L174 148.4C174.267 147.2 174.467 145.867 174.6 144.4C174.733 142.8 174.8 141.133 174.8 139.4C174.667 134.467 173.6 130.333 171.6 127C169.733 123.667 166.267 122 161.2 122C157.6 122 154.4 122.867 151.6 124.6C148.8 126.333 146.2 128.733 143.8 131.8C142.2 133.667 140.4 136.333 138.4 139.8C136.4 143.133 135.067 146.933 134.4 151.2L131.6 167.8C130.667 173.267 131.467 177.467 134 180.4C136.667 183.333 141.2 184.8 147.6 184.8Z" fill="white"/>
<path d="M47.8 207.4C43.1333 207.4 39.4667 206.133 36.8 203.6C34.2667 201.067 33 197.4 33 192.6C33 191.667 33 190.4 33 188.8C33.1333 187.2 33.3333 185.867 33.6 184.8L45.6 115.2H15.8L18 101.8H39C42.4667 101.8 45 101.133 46.6 99.8C48.3333 98.3333 49.5333 95.8667 50.2 92.4L54.8 65.4H69.6L63.4 101.8H106L103.8 115.2H61.2L48.4 191.6L52.4 194L97.4 164L105.2 174L82.6 190C77.9333 193.333 73.8667 196.133 70.4 198.4C67.0667 200.533 64 202.267 61.2 203.6C58.5333 204.933 56.1333 205.867 54 206.4C51.8667 207.067 49.8 207.4 47.8 207.4Z" fill="black"/>
<path d="M127.182 101.8H142.782L138.782 126.2H139.382C143.382 118.067 148.182 111.6 153.782 106.8C159.515 101.867 166.915 99.4 175.982 99.4C186.382 99.4 194.315 102.733 199.782 109.4C205.382 116.067 208.182 126.067 208.182 139.4C208.182 146.333 207.315 153.8 205.582 161.8C203.982 169.667 201.248 177 197.382 183.8C193.648 190.6 188.648 196.267 182.382 200.8C176.115 205.2 168.448 207.4 159.382 207.4C151.782 207.4 145.382 205.733 140.182 202.4C135.115 198.933 131.448 193.8 129.182 187H128.582L118.782 245H103.182L127.182 101.8ZM154.782 193.6C164.782 193.6 172.582 190.6 178.182 184.6C183.915 178.6 187.582 170.8 189.182 161.2L191.582 146.8C191.848 144.933 192.048 143.333 192.182 142C192.315 140.533 192.382 139.133 192.382 137.8C192.382 130.067 190.515 124.067 186.782 119.8C183.182 115.4 177.782 113.2 170.582 113.2C166.315 113.2 162.115 114.133 157.982 116C153.848 117.733 149.982 120.6 146.382 124.6C143.715 127.533 141.315 131 139.182 135C137.182 139 135.782 143.4 134.982 148.2L131.182 171C129.982 178.2 131.648 183.8 136.182 187.8C140.848 191.667 147.048 193.6 154.782 193.6Z" fill="black"/>
</svg>
